<?xml version="1.0" encoding="UTF-8" standalone="no"?>
<!-- Created with Inkscape (http://www.inkscape.org/) -->

<svg
   width="140mm"
   height="140mm"
   viewBox="0 0 140 140"
   version="1.1"
   id="svg1"
   inkscape:version="1.4.2 (ebf0e940d0, 2025-05-08)"
   sodipodi:docname="alldisplays.svg"
   xmlns:inkscape="http://www.inkscape.org/namespaces/inkscape"
   xmlns:sodipodi="http://sodipodi.sourceforge.net/DTD/sodipodi-0.dtd"
   xmlns="http://www.w3.org/2000/svg"
   xmlns:svg="http://www.w3.org/2000/svg">
  <sodipodi:namedview
     id="namedview1"
     pagecolor="#505050"
     bordercolor="#eeeeee"
     borderopacity="1"
     inkscape:showpageshadow="0"
     inkscape:pageopacity="0"
     inkscape:pagecheckerboard="0"
     inkscape:deskcolor="#505050"
     inkscape:document-units="mm"
     inkscape:zoom="1.8427271"
     inkscape:cx="243.38927"
     inkscape:cy="245.0173"
     inkscape:window-width="1910"
     inkscape:window-height="1158"
     inkscape:window-x="0"
     inkscape:window-y="0"
     inkscape:window-maximized="1"
     inkscape:current-layer="layer1" />
  <defs
     id="defs1" />
  <g
     inkscape:label="Layer 1"
     inkscape:groupmode="layer"
     id="layer1"
     style="display:inline">
    <path
       id="path1"
       clip-path="none"
       style="fill:#000000;fill-opacity:1;stroke-width:4.03755"
       d="M 16.196411 39.313168 C 11.179177 39.313168 7.1117658 43.380073 7.1117658 48.397305 L 7.1117658 87.10046 C 7.1117658 92.117524 11.179177 96.184596 16.196411 96.184596 L 38.40304 96.184596 L 38.40304 102.28973 L 34.365193 102.28973 C 32.692721 102.28973 31.336808 103.64523 31.336808 105.3176 C 31.336808 106.9899 32.692782 108.34599 34.365193 108.34599 L 60.609159 108.34599 C 62.281479 108.34599 63.637544 106.98995 63.637544 105.3176 C 63.637544 103.64528 62.281524 102.28973 60.609159 102.28973 L 56.571822 102.28973 L 56.571822 96.184596 L 78.77845 96.184596 C 83.795515 96.184596 87.863095 92.117523 87.863095 87.10046 L 87.863095 76.696846 L 87.863095 76.660194 L 87.863095 76.62405 L 87.863095 48.397305 C 87.863095 43.380073 83.795515 39.313168 78.77845 39.313168 L 16.196411 39.313168 z M 16.196411 45.369429 L 78.77845 45.369429 C 80.450815 45.369429 81.806326 46.724834 81.806326 48.397305 L 81.806326 73.632318 L 81.79309 73.632318 L 81.79309 79.688578 L 81.806326 79.688578 L 81.806326 87.099951 C 81.806326 88.7723 80.45077 90.128336 78.77845 90.128336 L 56.571822 90.128336 L 56.571822 90.087102 L 50.515561 90.087102 L 50.515561 90.128336 L 44.4593 90.128336 L 44.4593 90.087102 L 38.40304 90.087102 L 38.40304 90.128336 L 16.196411 90.128336 C 14.524 90.128336 13.168026 88.772255 13.168026 87.099951 L 13.168026 79.688578 L 13.17668 79.688578 L 13.17668 73.632318 L 13.168026 73.632318 L 13.168026 48.397305 C 13.168026 46.72491 14.523939 45.369429 16.196411 45.369429 z M 44.4593 96.184596 L 50.515561 96.184596 L 50.515561 102.28922 L 44.4593 102.28922 L 44.4593 96.184596 z "
       transform="matrix(1.0151388,0,0,1.0151388,0.05402841,7.9306181)" />
    <path
       id="path1-7"
       clip-path="none"
       style="fill:#000000;fill-opacity:1;stroke-width:3.0831"
       d="M 97.545948 34.56948 C 93.878445 34.56948 90.876176 37.415233 90.62603 41.019061 L 90.62603 89.781843 C 90.876176 93.385473 93.878445 96.231424 97.545948 96.231424 L 120.38023 96.231424 C 124.21145 96.231424 127.31732 93.125757 127.31732 89.294708 L 127.31732 41.506578 C 127.31732 37.675293 124.21142 34.56948 120.38023 34.56948 L 97.545948 34.56948 z M 97.545948 39.194212 L 120.38023 39.194212 C 121.65731 39.194212 122.69259 40.229445 122.69259 41.506578 L 122.69259 89.294708 C 122.69259 90.572187 121.65732 91.606692 120.38023 91.606692 L 97.545948 91.606692 C 96.268945 91.606692 95.233582 90.571721 95.233582 89.294708 L 95.233582 41.506578 C 95.233582 40.228978 96.268915 39.194212 97.545948 39.194212 z "
       transform="matrix(1.35361,0,0,1.35361,-39.61122,-24.380492)" />
    <path
       id="path1-2"
       clip-path="none"
       style="fill:#000000;fill-opacity:1;stroke-width:4.09867"
       d="m 98.693226,105.77634 v 5.9924 h -4.098457 c -1.69779,0 -3.07423,1.37603 -3.07423,3.07372 0,1.69762 1.3765,3.07423 3.07423,3.07423 h 26.641271 c 1.69764,0 3.07423,-1.37656 3.07423,-3.07423 0,-1.69764 -1.37655,-3.07372 -3.07423,-3.07372 h -4.09846 v -5.9924 h -6.14795 v 5.9924 h -6.14846 v -5.9924 z" />
  </g>
</svg>
