<?xml version="1.0" encoding="UTF-8" standalone="no"?>
<!-- Created with Inkscape (http://www.inkscape.org/) -->

<svg
   width="140mm"
   height="140mm"
   viewBox="0 0 140 140"
   version="1.1"
   id="svg1"
   xml:space="preserve"
   sodipodi:docname="full.svg"
   inkscape:version="1.4.2 (ebf0e940d0, 2025-05-08)"
   xmlns:inkscape="http://www.inkscape.org/namespaces/inkscape"
   xmlns:sodipodi="http://sodipodi.sourceforge.net/DTD/sodipodi-0.dtd"
   xmlns="http://www.w3.org/2000/svg"
   xmlns:svg="http://www.w3.org/2000/svg"><sodipodi:namedview
     id="namedview1"
     pagecolor="#505050"
     bordercolor="#eeeeee"
     borderopacity="1"
     inkscape:showpageshadow="0"
     inkscape:pageopacity="0"
     inkscape:pagecheckerboard="0"
     inkscape:deskcolor="#505050"
     inkscape:document-units="mm"
     showgrid="false"
     inkscape:zoom="0.83651094"
     inkscape:cx="264.79032"
     inkscape:cy="101.01482"
     inkscape:window-width="1910"
     inkscape:window-height="1158"
     inkscape:window-x="0"
     inkscape:window-y="0"
     inkscape:window-maximized="1"
     inkscape:current-layer="layer1" /><defs
     id="defs1" /><g
     inkscape:label="Layer 1"
     inkscape:groupmode="layer"
     id="layer1"><path
       fill-rule="evenodd"
       clip-rule="evenodd"
       d="m 11.191444,40.22084 c 0,-7.307799 5.924132,-13.231886 13.231886,-13.231886 h 91.15334 c 7.30753,0 13.23189,5.924087 13.23189,13.23193 v 43.554979 c 0,7.308133 -5.92436,13.231931 -13.23189,13.231931 H 74.410703 v 13.231956 h 13.231886 c 2.435844,0 4.410703,1.97486 4.410703,4.41063 0,2.43587 -1.97597,4.41066 -4.410703,4.41066 H 52.357633 c -2.436066,0 -4.410702,-1.97486 -4.410702,-4.41066 0,-2.43584 1.973747,-4.41063 4.410702,-4.41063 H 65.589297 V 97.007794 H 24.42333 c -7.307754,0 -13.231886,-5.923798 -13.231886,-13.231931 z M 24.42333,35.810248 c -2.435844,0 -4.410702,1.974637 -4.410702,4.410592 v 43.555023 c 0,2.435845 1.97597,4.410636 4.410702,4.410636 h 91.15334 c 2.43584,0 4.4107,-1.974858 4.4107,-4.410636 V 40.220884 c 0,-2.435955 -1.97597,-4.410636 -4.4107,-4.410636 z"
       fill="#323544"
       id="path1"
       style="stroke-width:5.88086;fill:#000000;fill-opacity:1" /><path
       d="m 21.299234,60.624211 c -0.38912,0.357122 -0.633011,0.870108 -0.633011,1.439858 0,0.569701 0.243891,1.082432 0.633011,1.439602 l 5.965896,5.966023 c 0.762982,0.76308 2.000116,0.76308 2.763166,0 0.762982,-0.763079 0.762982,-2.000224 0,-2.763274 l -2.68866,-2.688503 h 11.23604 c 1.079074,0 1.953849,-0.874834 1.953849,-1.953848 0,-1.079054 -0.874736,-1.953859 -1.953849,-1.953859 h -11.23604 l 2.688109,-2.688236 c 0.762982,-0.763079 0.762982,-2.000067 0,-2.763087 -0.76308,-0.76308 -2.000145,-0.76308 -2.763166,0 z"
       fill="#323544"
       id="path1-6"
       style="fill:#000000;fill-opacity:1;stroke-width:2.60513" /><path
       d="m 71.483978,36.690672 c -0.358205,-0.416199 -0.888914,-0.679781 -1.48128,-0.679781 -0.569701,0 -1.082697,0.24389 -1.439858,0.633011 l -5.967874,5.967984 c -0.762982,0.762981 -0.762982,2.000145 0,2.763166 0.763079,0.762981 2.000243,0.762981 2.763293,0 l 2.69058,-2.690688 v 11.23601 c 0,1.079093 0.874835,1.953956 1.953859,1.953956 1.079044,0 1.953848,-0.874833 1.953848,-1.953956 V 42.689543 l 2.686159,2.68605 c 0.762784,0.762981 1.999969,0.762981 2.763009,0 0.763079,-0.763079 0.763079,-2.000145 0,-2.763165 z"
       fill="#323544"
       id="path2"
       style="fill:#000000;fill-opacity:1;stroke-width:2.60513" /><path
       d="m 71.956546,70.200695 c 0,-1.079044 -0.874834,-1.953858 -1.953848,-1.953858 -1.079045,0 -1.953859,0.874834 -1.953859,1.953858 v 11.242991 l -2.689013,-2.689024 c -0.763081,-0.76308 -2.000176,-0.76308 -2.763196,0 -0.76308,0.763079 -0.76308,2.000224 0,2.763274 l 6.024036,6.02386 c 0.763081,0.763079 2.000234,0.763079 2.763276,0 l 6.023337,-6.023338 c 0.763081,-0.763079 0.763081,-2.000224 0,-2.763274 -0.762784,-0.763081 -1.999958,-0.763081 -2.763009,0 l -2.687724,2.687724 z"
       fill="#323544"
       id="path3"
       style="fill:#000000;fill-opacity:1;stroke-width:2.60513" /><path
       d="m 101.42267,60.11021 c -1.07905,0 -1.953859,0.874835 -1.953859,1.953859 0,1.079044 0.874829,1.953848 1.953859,1.953848 h 11.24222 l -2.69033,2.690334 c -0.76308,0.762784 -0.76308,1.999959 0,2.763009 0.76308,0.763079 2.00023,0.763079 2.76327,0 l 6.02361,-6.023604 c 0.36628,-0.366279 0.57236,-0.863314 0.57236,-1.381509 0,-0.265946 -0.0542,-0.52628 -0.15656,-0.766133 -0.10476,-0.246155 -0.25846,-0.466316 -0.44889,-0.648371 l -5.99104,-5.991053 c -0.76308,-0.762981 -2.00023,-0.762981 -2.76327,0 -0.76308,0.76308 -0.76308,2.000254 0,2.763295 l 2.68668,2.686415 z"
       fill="#323544"
       id="path4"
       style="fill:#000000;fill-opacity:1;stroke-width:2.60513" /></g></svg>
